<svg id="Layer_3" data-name="Layer 3" xmlns="http://www.w3.org/2000/svg" viewBox="0 0 132.88 140.29"><defs><style>.cls-1,.cls-10,.cls-12,.cls-5,.cls-7,.cls-8{fill:none;stroke-linecap:round;stroke-miterlimit:10;}.cls-1{stroke:#d3e2f1;}.cls-1,.cls-10{stroke-width:2px;}.cls-2{fill:#d3e2f1;}.cls-3{fill:#1c1c2b;}.cls-4{fill:#d8936c;}.cls-5,.cls-8{stroke:#4f4f7f;}.cls-6,.cls-9{fill:#be815f;}.cls-10,.cls-12,.cls-7{stroke:#1c1c2b;}.cls-12,.cls-7,.cls-8{stroke-width:0.5px;}.cls-9{opacity:0.5;}.cls-11{fill:#231f20;}.cls-12{opacity:0.25;}</style></defs><path class="cls-1" d="M39,103.77s-16.4,27.09,10.5,34.46,36.31,13.64,36.31,13.64" transform="translate(-33.06 -29.85)"/><path class="cls-2" d="M44.23,103.81c-4.06,8.62-9.34,27.49,20.64,32.45s84.28,41.91,96.82,18.93-6.94-51.55-3.63-92.33c1.85-22.67-26.84-44.45-60.26-26.2S57.32,76,44.23,103.81Z" transform="translate(-33.06 -29.85)"/><path class="cls-3" d="M104.7,146.36s28.55,2.89,33.63,16.06c0,0-26.63,11.26-54.08,6.59,0,0,10.57-25.26-29-7.82L46,156s23.47-13.31,36-14.27A45.24,45.24,0,0,1,104.7,146.36Z" transform="translate(-33.06 -29.85)"/><path class="cls-4" d="M98,151.3c-9.2,1.92-15.24-7.82-15.24-7.82l-.06-5.56c4.24,3.37,11.52,7.68,19.53,5.91l0,2,3.29,1.52S107.18,149.38,98,151.3Z" transform="translate(-33.06 -29.85)"/><path class="cls-5" d="M84.42,150.76s12.66,15,25.22,2.36" transform="translate(-33.06 -29.85)"/><path class="cls-5" d="M123.43,158s4.34-.27,4.86,7.35" transform="translate(-33.06 -29.85)"/><path class="cls-5" d="M56.11,154.26s2.9-.7,6.19,4" transform="translate(-33.06 -29.85)"/><path class="cls-6" d="M102.2,143.83c-8,1.77-15.29-2.54-19.53-5.91l-.08-7.61,19.5,2.6Z" transform="translate(-33.06 -29.85)"/><path class="cls-7" d="M57.14,92.94s-1.5-3.9-.8-6.31c0,0-3.14-3.85-2.67-7.45" transform="translate(-33.06 -29.85)"/><path class="cls-8" d="M109.5,57.92s12-7.69,21.71,7.39" transform="translate(-33.06 -29.85)"/><path class="cls-3" d="M54.12,80.84" transform="translate(-33.06 -29.85)"/><path class="cls-4" d="M140.31,94.56c0,26.7-13.82,43.22-40.57,43.22-.27,0-.54,0-.79,0-15.61-.34-25.57-10.9-31-24.95-1.59,2.44-4,4.4-7.46,4h0c-8.36-1-13.49-9.57-9.48-18.85a5.53,5.53,0,0,1,5.57-3.65,16.23,16.23,0,0,1,7.08,2.2c0-.17,0-.33-.07-.5a98.13,98.13,0,0,1-1-14.39c0-26.75,9.52-36.45,36.22-36.45S140.31,67.82,140.31,94.56Z" transform="translate(-33.06 -29.85)"/><path class="cls-9" d="M99,137.76c-15.61-.34-25.57-10.9-31-24.95-1.59,2.44-4,4.4-7.46,4,1.32-10.31,4.32-21,11.34-20C71.8,96.83,70.56,125.1,99,137.76Z" transform="translate(-33.06 -29.85)"/><path class="cls-4" d="M88,112.15" transform="translate(-33.06 -29.85)"/><path class="cls-10" d="M92.59,95.56s7.86-8.8,13.51.78" transform="translate(-33.06 -29.85)"/><path class="cls-10" d="M112.8,98s7.2-8.07,12.38.72" transform="translate(-33.06 -29.85)"/><path class="cls-10" d="M111.88,88.56s.71,1.82,1.27,2C115.55,91.17,122,86,122,86" transform="translate(-33.06 -29.85)"/><path class="cls-10" d="M91.67,113.91s8.1,10.84,18.26,8.37" transform="translate(-33.06 -29.85)"/><path class="cls-10" d="M108.29,86.94s-1.69,2.9-2.67,2.89c-2.4,0-6.49-7.07-6.49-7.07" transform="translate(-33.06 -29.85)"/><path class="cls-6" d="M140,92.36c-3.11-17.47-18-25.6-20.91-25.91a21.47,21.47,0,0,1-10.85,1.92,10.29,10.29,0,0,0-1.77-2.78,22.33,22.33,0,0,0,15.33-1.18C137.34,70.08,140.79,91.09,140,92.36Z" transform="translate(-33.06 -29.85)"/><path class="cls-6" d="M98.1,85.57a59.09,59.09,0,0,1-5.75,4.05c-4.25,2.66-11.62,2-12.38,2.32,0,0,11.53-12.52,10.52-20.09.66-2.54.93-4.72,1.23-5.16,6.38,6.46-9,23.22-9,23.22.78-.34,8.15.34,12.39-2.32C96.14,86.92,97.15,86.24,98.1,85.57Z" transform="translate(-33.06 -29.85)"/><path class="cls-7" d="M103.54,44.69s.11-12.3,12.89-9" transform="translate(-33.06 -29.85)"/><path class="cls-6" d="M72.06,111.68c-10.47-3.75-14.29-11.1-15.52-17.4a16.23,16.23,0,0,1,7.08,2.2c0-.17,0-.33-.07-.5Z" transform="translate(-33.06 -29.85)"/><path class="cls-11" d="M140.18,92.38c-.09-.88-.19-1.74-.33-2.59-2.6-17.34-15.24-25.08-18.06-25.38a22.33,22.33,0,0,1-15.33,1.18,10.29,10.29,0,0,1,1.77,2.78c2.16,5.23-1.55,11.15-10,17.13l-.1.07c-.95.67-2,1.35-3,2-4.24,2.66-11.61,2-12.39,2.32,0,0,15.43-16.76,9-23.22-.3.44-.57,2.62-1.23,5.16a23,23,0,0,1-1.72,4.6c-3.56,6.82-8.45,16.66-16,21.48a21.83,21.83,0,0,1-2.32,1.27s0,.17,0,.47a97.74,97.74,0,0,0,1.57,12,7.43,7.43,0,0,1-1.1-.9c-.9-.84-1.73-1.67-2.52-2.52-10.92-11.7-11.12-23-11.12-23-9-14.1,15.29-39.36,20.77-43.33,14-10.17,23-1.11,25.36,1.71.37.47.56.75.56.75a20.45,20.45,0,0,1,2.85-3.53c9.94-9.6,22.16,4.09,27.9,12a20,20,0,0,0,4.29,4.09C149.7,65.27,145.16,84.46,140.18,92.38Z" transform="translate(-33.06 -29.85)"/><path class="cls-12" d="M52.88,102.09s7.16-6.85,10.43,2.06c0,0-8.3,4-.68,7.69" transform="translate(-33.06 -29.85)"/><path class="cls-8" d="M96.45,64s5.7,6.86-.45,13.42" transform="translate(-33.06 -29.85)"/><path class="cls-8" d="M87.55,64.35S89.7,73,81.32,76.25" transform="translate(-33.06 -29.85)"/><path class="cls-11" d="M67.75,141.35l.38-.09c0,.08-.15.23-.32.46C67.8,141.59,67.77,141.48,67.75,141.35Z" transform="translate(-33.06 -29.85)"/></svg>