<svg id="Layer_5" data-name="Layer 5" xmlns="http://www.w3.org/2000/svg" viewBox="0 0 1080 1080"><defs><style>.cls-1{fill:#f5bc5e;}</style></defs><path class="cls-1" d="M31.71,277.06V152.11a12,12,0,0,1,12-12l584.83.54a12,12,0,0,1,11,16.92l-55.84,125a12,12,0,0,1-11,7.11l-529-.57A12,12,0,0,1,31.71,277.06Z"/><path class="cls-1" d="M775.7,318.18,500.09,932.82a12,12,0,0,1-11,7.08H43.72a12,12,0,0,1-12-12V802.61a12,12,0,0,1,12.11-12l351,2.61a12,12,0,0,0,11-7L690,164.25a12,12,0,0,1,21.9.12l63.82,144A11.93,11.93,0,0,1,775.7,318.18Z"/><path class="cls-1" d="M1036.28,938h-133a12,12,0,0,1-11-7.13L724,551.81a11.94,11.94,0,0,1,0-9.76l67-150a12,12,0,0,1,21.93.05l234.3,529.06A12,12,0,0,1,1036.28,938Z"/><path class="cls-1" d="M31.71,603.08v-125a12,12,0,0,1,12-12l436.68.55a12,12,0,0,1,10.92,17l-56.83,125a12.08,12.08,0,0,1-11,7L43.7,615.09A12,12,0,0,1,31.71,603.08Z"/><circle class="cls-1" cx="695.47" cy="850.63" r="68.99" transform="translate(-397.78 740.92) rotate(-45)"/></svg>